<svg xmlns="http://www.w3.org/2000/svg" viewBox="0 0 166.28 33.34"><defs><style>.cls-1{fill:#fff;}.cls-2{fill:#19df80;}</style></defs><g id="Camada_2" data-name="Camada 2"><g id="Layer_1" data-name="Layer 1"><path class="cls-1" d="M11.84,5.85H0v27.3H11.84q12.78,0,12.79-14.39Q24.63,5.86,11.84,5.85Zm-.76,22.91h-6V10.24h6q8.49,0,8.49,8.52Q19.57,28.75,11.08,28.76Z"></path><path class="cls-1" d="M41.42,5.66q-13.71,0-13.71,13.88.62,13.8,13.71,13.8,13.48,0,13.5-13.8T41.42,5.66Zm0,23.29Q33,29,33,19.43t8.45-9.38q8.25,0,8.25,9.38T41.42,29Z"></path><path class="cls-1" d="M71.71,5.66Q58,5.66,58,19.54q.61,13.8,13.71,13.8,13.49,0,13.5-13.8T71.71,5.66Zm0,23.29q-8.46,0-8.45-9.52t8.45-9.38q8.24,0,8.24,9.38T71.71,29Z"></path><polygon class="cls-1" points="107.1 10.24 107.1 5.85 86.38 5.85 86.38 10.24 94.21 10.24 94.21 33.15 99.27 33.15 99.27 10.24 107.1 10.24"></polygon><path class="cls-1" d="M116.05,5.85l-11.59,27.3h5.19l9-22.09c2.28,5.23,3.28,7.86,4.2,10.26h-6.6l-1.73,4.38h10.07c.77,1.84,1.77,4.12,3.3,7.45h5.44L121.49,5.85Z"></path><polygon class="cls-1" points="150.09 20.31 150.09 20.31 143.63 20.31 143.63 20.31 143.63 20.31 143.63 20.31 133.54 33.15 133.54 33.15 139.94 33.15 147.05 24.16 155.01 33.15 161.41 33.15 151.31 20.31 150.09 20.31"></polygon><path class="cls-2" d="M144.27,19.19h7.06C152.6,10.8,164.64,1.44,166.28,0h-2.93c-6.15,2.56-13.61,7.21-17.11,13.1l-4.59-5.84h-6.77l9.39,11.93Z"></path></g></g></svg>